<svg width="53" height="50" viewBox="0 0 53 50" fill="none" xmlns="http://www.w3.org/2000/svg">
<path d="M36.4312 3.3C37.292 3.3 38.1174 3.6266 38.726 4.20797C39.3346 4.78933 39.6766 5.57783 39.6766 6.4V43.6C39.6766 44.4222 39.3346 45.2107 38.726 45.792C38.1174 46.3734 37.292 46.7 36.4312 46.7H16.9594C16.0987 46.7 15.2732 46.3734 14.6646 45.792C14.056 45.2107 13.7141 44.4222 13.7141 43.6V6.4C13.7141 5.57783 14.056 4.78933 14.6646 4.20797C15.2732 3.6266 16.0987 3.3 16.9594 3.3H36.4312ZM16.9594 0.199997C15.238 0.199997 13.587 0.853209 12.3698 2.01593C11.1526 3.17866 10.4688 4.75565 10.4688 6.4V43.6C10.4688 45.2443 11.1526 46.8213 12.3698 47.9841C13.587 49.1468 15.238 49.8 16.9594 49.8H36.4312C38.1527 49.8 39.8036 49.1468 41.0208 47.9841C42.238 46.8213 42.9219 45.2443 42.9219 43.6V6.4C42.9219 4.75565 42.238 3.17866 41.0208 2.01593C39.8036 0.853209 38.1527 0.199997 36.4312 0.199997L16.9594 0.199997Z" fill="#18191A"/>
<path d="M26.6953 43.6C27.556 43.6 28.3815 43.2734 28.9901 42.692C29.5987 42.1107 29.9406 41.3222 29.9406 40.5C29.9406 39.6778 29.5987 38.8893 28.9901 38.308C28.3815 37.7266 27.556 37.4 26.6953 37.4C25.8346 37.4 25.0091 37.7266 24.4005 38.308C23.7919 38.8893 23.45 39.6778 23.45 40.5C23.45 41.3222 23.7919 42.1107 24.4005 42.692C25.0091 43.2734 25.8346 43.6 26.6953 43.6Z" fill="#18191A"/>
<path d="M29.5891 21.3574L25.6624 20.2259C25.208 20.097 24.8917 19.6781 24.8917 19.2126C24.8917 18.6289 25.3716 18.1562 25.9642 18.1562H28.3747C28.8183 18.1562 29.2546 18.2887 29.6182 18.5322C29.8399 18.679 30.1381 18.6432 30.3271 18.4606L31.5924 17.2432C31.8505 16.9961 31.8142 16.5843 31.5269 16.3659C30.6362 15.6784 29.5236 15.2952 28.382 15.2917V13.5729C28.382 13.2578 28.1202 13 27.8003 13H26.6368C26.3169 13 26.0551 13.2578 26.0551 13.5729V15.2917H25.9642C23.6482 15.2917 21.7867 17.2503 22.0012 19.5742C22.1539 21.2249 23.4337 22.5677 25.048 23.0332L28.7747 24.1074C29.2291 24.2399 29.5454 24.6553 29.5454 25.1208C29.5454 25.7044 29.0655 26.1771 28.4729 26.1771H26.0624C25.6188 26.1771 25.1825 26.0446 24.8189 25.8011C24.5972 25.6543 24.299 25.6901 24.11 25.8727L22.8447 27.0902C22.5866 27.3372 22.6229 27.749 22.9102 27.9674C23.8009 28.6549 24.9135 29.0381 26.0551 29.0417V30.7604C26.0551 31.0755 26.3169 31.3333 26.6368 31.3333H27.8003C28.1202 31.3333 28.382 31.0755 28.382 30.7604V29.0345C30.0763 29.0023 31.6651 28.0104 32.225 26.4313C33.0067 24.2256 31.6942 21.9626 29.5891 21.3574Z" fill="#C0028B"/>
<path d="M46.7049 20.8652H34.0047C33.726 20.8652 33.5 21.0848 33.5 21.3556V23.6443C33.5 23.9152 33.726 24.1348 34.0047 24.1348H46.7049V26.0172C46.7049 26.891 47.7923 27.3287 48.4283 26.7108L52.0481 23.1936C52.4423 22.8105 52.4423 22.1895 52.0481 21.8064L48.4283 18.2893C47.7923 17.6713 46.7049 18.109 46.7049 18.9828V20.8652Z" fill="#C0028B"/>
</svg>
