<svg width="51" height="31" viewBox="0 0 51 31" fill="none" xmlns="http://www.w3.org/2000/svg">
<path d="M0.0468826 0V28.6154H25.937C25.404 27.0764 25.133 25.4664 25.1343 23.8462H10.0818C10.0818 22.5813 9.5532 21.3682 8.61225 20.4738C7.67129 19.5794 6.39507 19.0769 5.06436 19.0769V9.53846C7.84905 9.53846 10.0818 7.41615 10.0818 4.76923H35.1692C35.1692 6.03411 35.6978 7.24718 36.6388 8.14159C37.5797 9.03599 38.856 9.53846 40.1867 9.53846V9.68154C41.8675 9.68154 43.5484 9.96769 45.2041 10.4923V0H0.0468826ZM22.6255 7.15385C18.3607 7.22538 15.0993 10.2538 15.0993 14.3077C15.0993 18.3615 18.3607 21.3185 22.6255 21.4615C23.5788 21.4615 24.5572 21.2708 25.4855 20.9131C26.1628 18.29 27.2918 15.81 30.0765 13.3777C29.7754 10.2062 26.6144 7.08231 22.6255 7.15385ZM46.7846 14.9515L37.0758 24.2515L33.689 20.9846L30.1517 24.3708L37.0508 31L50.2969 18.3138L46.7846 14.9515Z" fill="black"/>
<path d="M37.0758 24.2515L46.7846 14.9515L50.2969 18.3138L37.0508 31L30.1517 24.3708L33.689 20.9846L37.0758 24.2515Z" fill="#C0028A"/>
</svg>
